<?xml version="1.0" standalone="no"?><!DOCTYPE svg PUBLIC "-//W3C//DTD SVG 1.1//EN" "http://www.w3.org/Graphics/SVG/1.1/DTD/svg11.dtd"><svg t="1608545072524" class="icon" viewBox="0 0 1024 1024" version="1.1" xmlns="http://www.w3.org/2000/svg" p-id="604" xmlns:xlink="http://www.w3.org/1999/xlink" width="200" height="200"><defs><style type="text/css"></style></defs><path d="M379.104 509.344c4.647 3.465 7.707 5.211 10.102 7.614C501.088 628.735 612.886 740.6 724.79 852.353c11.498 11.482 17.601 24.432 14.06 40.893-6.549 30.44400001-42.724 43.056-66.702 23.206-2.63799999-2.179-5.006-4.691-7.43-7.116a8438953.024 8438953.024 0 0 1-366.434-366.411c-22.218-22.218-22.236-44.944-0.033-67.143C421 353.027 543.79899999 230.331 666.436 107.466c12.166-12.191 26.06200001-17.589 42.734-13.327 28.957 7.395 40.247 42.511 21.462 65.82799999-2.323 2.881-5.046 5.457-7.66799999 8.08300001C611.75 279.278 500.529 390.509 389.258 501.684c-2.407 2.404-5.46900001 4.166-10.148 7.66z" p-id="605"></path></svg>